<svg xmlns="http://www.w3.org/2000/svg" viewBox="0 0 120 120" width="240px" height="240px" baseProfile="basic">
    <circle cx="60" cy="64" r="48" opacity=".35"/>
    <circle cx="60" cy="60" r="48" fill="#ffa400"/>
    <path d="M40.155,36h22.445c13.062,0,19.818,6.756,19.818,15.164c0,6.08-3.453,10.135-8.182,12.085v0.076 c6.231,2.026,9.609,6.756,9.609,12.912C83.845,84.643,77.389,92,63.576,92H40.155V36z M62,58.745c4.729,0,7.056-2.477,7.056-5.479 s-2.327-5.405-6.906-5.405h-7.882v10.884H62z M62.375,80.064c5.029,0,7.582-2.477,7.582-5.78c0-3.453-2.777-5.78-7.432-5.78 h-8.257v11.559H62.375z"
          opacity=".35"/>
    <rect width="8" height="12" x="64" y="85" fill="#ffec76"/>
    <rect width="8" height="12" x="47" y="85" fill="#ffec76"/>
    <path fill="#ffec76"
          d="M40.155,32h22.445c13.062,0,19.818,6.756,19.818,15.164c0,6.08-3.453,10.135-8.182,12.085v0.076 c6.231,2.026,9.609,6.756,9.609,12.912C83.845,80.643,77.389,88,63.576,88H40.155V32z M62,54.745c4.729,0,7.056-2.477,7.056-5.479 s-2.327-5.405-6.906-5.405h-7.882v10.884H62z M62.375,76.064c5.029,0,7.582-2.477,7.582-5.78c0-3.453-2.777-5.78-7.432-5.78 h-8.257v11.559H62.375z"/>
    <rect width="8" height="12" x="64" y="23" fill="#ffec76"/>
    <rect width="8" height="12" x="47" y="23" fill="#ffec76"/>
    <rect width="8" height="4" x="64" y="97" opacity=".35"/>
    <rect width="8" height="4" x="47" y="97" opacity=".35"/>
</svg>